<svg baseProfile="full" height="300" version="1.1" viewBox="0 0 1200 300" width="1200" xmlns="http://www.w3.org/2000/svg" xmlns:ev="http://www.w3.org/2001/xml-events" xmlns:xlink="http://www.w3.org/1999/xlink"><defs /><g transform="translate(0,252) scale(1,-1)"><path d="M 52.731 70.000 L 79.802 70.000 L 79.802 125.584 L 110.547 125.584 C 110.842 125.584 111.072 125.584 111.269 125.584 L 139.980 70.000 L 169.806 70.000 L 137.913 130.506 C 156.091 137.889 166.952 153.147 166.952 173.983 C 166.952 203.908 145.919 222.775 112.286 222.775 L 52.731 222.775 L 52.731 70.000 Z M 79.802 147.930 L 79.802 199.806 L 110.744 199.806 C 129.020 199.806 140.275 189.864 140.275 173.983 C 140.275 157.970 129.020 147.930 110.973 147.930 L 79.802 147.930 Z M 217.334 67.539 C 242.666 67.539 262.780 82.206 266.881 103.436 L 242.666 103.436 C 239.712 94.216 230.984 87.948 217.958 87.948 C 200.534 87.948 190.494 99.728 189.870 117.381 L 268.194 117.381 L 268.194 124.436 C 268.194 157.675 247.489 180.742 216.317 180.742 C 185.966 180.742 164.539 156.953 164.539 124.042 C 164.539 91.230 184.850 67.539 217.334 67.539 Z M 190.067 135.231 C 191.806 150.686 201.748 160.234 216.744 160.234 C 231.706 160.234 241.747 150.686 243.387 135.231 L 190.067 135.231 Z M 322.088 67.539 C 349.486 67.539 369.370 85.192 371.208 108.850 L 345.680 108.850 C 343.219 96.873 335.934 89.064 322.416 89.064 C 305.386 89.064 295.345 102.714 295.345 124.042 C 295.345 145.469 305.484 159.217 322.416 159.217 C 335.836 159.217 343.941 151.113 345.877 139.530 L 371.208 139.530 C 368.977 163.614 349.289 180.742 322.088 180.742 C 290.423 180.742 269.194 157.478 269.194 124.042 C 269.194 90.606 290.423 67.539 322.088 67.539 Z M 425.003 67.539 C 450.334 67.539 470.448 82.206 474.550 103.436 L 450.334 103.436 C 447.381 94.216 438.653 87.948 425.627 87.948 C 408.203 87.948 398.163 99.728 397.539 117.381 L 475.863 117.381 L 475.863 124.436 C 475.863 157.675 455.158 180.742 423.986 180.742 C 393.634 180.742 372.208 156.953 372.208 124.042 C 372.208 91.230 392.519 67.539 425.003 67.539 Z M 397.736 135.231 C 399.475 150.686 409.417 160.234 424.413 160.234 C 439.375 160.234 449.416 150.686 451.056 135.231 L 397.736 135.231 Z M 524.342 67.441 C 551.084 67.441 570.280 80.763 570.280 101.894 C 570.280 117.775 560.338 127.225 538.911 131.720 L 519.420 135.723 C 510.397 137.692 505.048 141.663 505.048 148.127 C 505.048 155.509 512.038 161.252 523.423 161.252 C 535.203 161.252 543.111 154.197 543.308 144.550 L 567.622 144.550 C 566.998 166.797 549.050 180.644 522.800 180.644 C 496.353 180.644 479.225 167.223 479.225 147.306 C 479.225 130.900 490.086 120.334 510.791 116.036 L 529.264 112.263 C 538.386 110.294 544.030 106.520 544.030 99.958 C 544.030 92.247 536.450 86.833 523.916 86.833 C 511.020 86.833 503.408 92.870 502.292 103.436 L 476.764 103.436 C 478.405 80.139 497.994 67.441 524.342 67.441 Z M 618.858 67.441 C 645.600 67.441 664.795 80.763 664.795 101.894 C 664.795 117.775 654.853 127.225 633.427 131.720 L 613.936 135.723 C 604.913 137.692 599.564 141.663 599.564 148.127 C 599.564 155.509 606.553 161.252 617.939 161.252 C 629.719 161.252 637.627 154.197 637.823 144.550 L 662.138 144.550 C 661.514 166.797 643.566 180.644 617.316 180.644 C 590.869 180.644 573.741 167.223 573.741 147.306 C 573.741 130.900 584.602 120.334 605.306 116.036 L 623.780 112.263 C 632.902 110.294 638.545 106.520 638.545 99.958 C 638.545 92.247 630.966 86.833 618.431 86.833 C 605.536 86.833 597.923 92.870 596.808 103.436 L 571.280 103.436 C 572.920 80.139 592.509 67.441 618.858 67.441 Z" fill="#2E4A3D" /></g></svg>