<svg baseProfile="full" height="500" version="1.1" viewBox="0 0 1600 500" width="1600" xmlns="http://www.w3.org/2000/svg" xmlns:ev="http://www.w3.org/2001/xml-events" xmlns:xlink="http://www.w3.org/1999/xlink"><defs /><rect fill="#F4EBDD" height="500" width="1600" x="0" y="0" /><rect fill="#A9B8A5" height="92" opacity="0.34" rx="24" ry="24" width="92" x="980" y="70" /><rect fill="#A9B8A5" height="92" opacity="0.34" rx="24" ry="24" width="92" x="1092" y="70" /><rect fill="#A9B8A5" height="92" opacity="0.22" rx="24" ry="24" width="92" x="1204" y="70" /><rect fill="#A9B8A5" height="92" opacity="0.12" rx="24" ry="24" width="92" x="1316" y="70" /><rect fill="#A9B8A5" height="92" opacity="0.34" rx="24" ry="24" width="92" x="980" y="182" /><rect fill="#A9B8A5" height="92" opacity="0.34" rx="24" ry="24" width="92" x="1092" y="182" /><rect fill="#C97B63" height="64" opacity="0.95" rx="22" ry="22" width="64" x="1218" y="196" /><rect fill="#A9B8A5" height="92" opacity="0.12" rx="24" ry="24" width="92" x="1316" y="182" /><rect fill="#A9B8A5" height="92" opacity="0.34" rx="24" ry="24" width="92" x="980" y="294" /><rect fill="#A9B8A5" height="92" opacity="0.34" rx="24" ry="24" width="92" x="1092" y="294" /><rect fill="#A9B8A5" height="92" opacity="0.22" rx="24" ry="24" width="92" x="1204" y="294" /><rect fill="#A9B8A5" height="92" opacity="0.12" rx="24" ry="24" width="92" x="1316" y="294" /><rect fill="#A9B8A5" height="80" opacity="0.1" rx="22" ry="22" width="80" x="1410" y="90" /><rect fill="#A9B8A5" height="80" opacity="0.1" rx="22" ry="22" width="80" x="1410" y="202" /><rect fill="#A9B8A5" height="80" opacity="0.06" rx="22" ry="22" width="80" x="1446" y="108" /><rect fill="#A9B8A5" height="80" opacity="0.06" rx="22" ry="22" width="80" x="1446" y="220" /><rect fill="#A9B8A5" height="80" opacity="0.035" rx="22" ry="22" width="80" x="1482" y="126" /><rect fill="#A9B8A5" height="80" opacity="0.035" rx="22" ry="22" width="80" x="1482" y="238" /><g transform="translate(72,94) scale(0.41015625)"><rect fill="#2E4A3D" height="432" rx="92" ry="92" width="432" x="40" y="40" /><rect fill="#F4EBDD" height="93.333" rx="22" ry="22" width="93.333" x="88.0" y="88.0" /><rect fill="#F4EBDD" height="93.333" rx="22" ry="22" width="93.333" x="199.333" y="88.0" /><rect fill="#F4EBDD" height="93.333" rx="22" ry="22" width="93.333" x="310.666" y="88.0" /><rect fill="#F4EBDD" height="93.333" rx="22" ry="22" width="93.333" x="88.0" y="199.333" /><rect fill="#F4EBDD" height="93.333" rx="22" ry="22" width="93.333" x="199.333" y="199.333" /><rect fill="#F4EBDD" height="93.333" rx="22" ry="22" width="93.333" x="310.666" y="199.333" /><rect fill="#F4EBDD" height="93.333" rx="22" ry="22" width="93.333" x="88.0" y="310.666" /><rect fill="#C97B63" height="57.333" rx="18" ry="18" width="57.333" x="217.333" y="328.666" /><rect fill="#F4EBDD" height="93.333" rx="22" ry="22" width="93.333" x="310.666" y="310.666" /><rect fill="none" height="404" opacity="0.35" rx="78" ry="78" stroke="#A9B8A5" stroke-width="4" width="404" x="54" y="54" /></g><g transform="translate(320,285) scale(1,-1)"><path d="M 10.306 0.000 L 32.220 0.000 L 32.220 44.997 L 57.109 44.997 C 57.348 44.997 57.534 44.997 57.694 44.997 L 80.936 0.000 L 105.081 0.000 L 79.263 48.981 C 93.978 54.958 102.770 67.309 102.770 84.177 C 102.770 108.402 85.744 123.675 58.517 123.675 L 10.306 123.675 L 10.306 0.000 Z M 32.220 63.086 L 32.220 105.081 L 57.269 105.081 C 72.064 105.081 81.175 97.033 81.175 84.177 C 81.175 71.214 72.064 63.086 57.455 63.086 L 32.220 63.086 Z M 143.747 -1.992 C 164.253 -1.992 180.536 9.881 183.856 27.067 L 164.253 27.067 C 161.862 19.603 154.797 14.530 144.252 14.530 C 130.147 14.530 122.019 24.066 121.514 38.356 L 184.919 38.356 L 184.919 44.067 C 184.919 70.975 168.158 89.648 142.923 89.648 C 118.353 89.648 101.008 70.391 101.008 43.748 C 101.008 17.186 117.450 -1.992 143.747 -1.992 Z M 121.673 52.806 C 123.081 65.317 131.130 73.047 143.269 73.047 C 155.381 73.047 163.509 65.317 164.837 52.806 L 121.673 52.806 Z M 228.737 -1.992 C 250.917 -1.992 267.014 12.298 268.502 31.450 L 247.836 31.450 C 245.844 21.755 239.947 15.433 229.003 15.433 C 215.217 15.433 207.089 26.483 207.089 43.748 C 207.089 61.094 215.297 72.223 229.003 72.223 C 239.867 72.223 246.428 65.662 247.995 56.286 L 268.502 56.286 C 266.695 75.783 250.758 89.648 228.737 89.648 C 203.105 89.648 185.919 70.816 185.919 43.748 C 185.919 16.681 203.105 -1.992 228.737 -1.992 Z M 312.241 -1.992 C 332.747 -1.992 349.030 9.881 352.350 27.067 L 332.747 27.067 C 330.356 19.603 323.291 14.530 312.745 14.530 C 298.641 14.530 290.512 24.066 290.008 38.356 L 353.412 38.356 L 353.412 44.067 C 353.412 70.975 336.652 89.648 311.417 89.648 C 286.847 89.648 269.502 70.391 269.502 43.748 C 269.502 17.186 285.944 -1.992 312.241 -1.992 Z M 290.167 52.806 C 291.575 65.317 299.623 73.047 311.762 73.047 C 323.875 73.047 332.003 65.317 333.331 52.806 L 290.167 52.806 Z M 392.848 -2.072 C 414.497 -2.072 430.036 8.713 430.036 25.819 C 430.036 38.675 421.987 46.325 404.642 49.964 L 388.864 53.205 C 381.559 54.798 377.230 58.012 377.230 63.245 C 377.230 69.222 382.887 73.870 392.105 73.870 C 401.641 73.870 408.042 68.159 408.202 60.350 L 427.884 60.350 C 427.380 78.359 412.850 89.569 391.600 89.569 C 370.191 89.569 356.325 78.705 356.325 62.581 C 356.325 49.300 365.117 40.747 381.878 37.267 L 396.833 34.212 C 404.217 32.619 408.786 29.564 408.786 24.252 C 408.786 18.009 402.650 13.627 392.503 13.627 C 382.064 13.627 375.902 18.514 374.998 27.067 L 354.333 27.067 C 355.661 8.208 371.519 -2.072 392.848 -2.072 Z M 469.552 -2.072 C 491.200 -2.072 506.739 8.713 506.739 25.819 C 506.739 38.675 498.691 46.325 481.345 49.964 L 465.567 53.205 C 458.262 54.798 453.933 58.012 453.933 63.245 C 453.933 69.222 459.591 73.870 468.808 73.870 C 478.344 73.870 484.745 68.159 484.905 60.350 L 504.587 60.350 C 504.083 78.359 489.553 89.569 468.303 89.569 C 446.894 89.569 433.028 78.705 433.028 62.581 C 433.028 49.300 441.820 40.747 458.581 37.267 L 473.536 34.212 C 480.920 32.619 485.489 29.564 485.489 24.252 C 485.489 18.009 479.353 13.627 469.206 13.627 C 458.767 13.627 452.605 18.514 451.702 27.067 L 431.036 27.067 C 432.364 8.208 448.222 -2.072 469.552 -2.072 Z" fill="#2E4A3D" /></g><g transform="translate(324,335) scale(1,-1)"><path d="M 3.695 0.000 L 7.586 0.000 L 7.586 11.051 L 14.168 11.051 C 21.289 11.051 24.570 15.383 24.570 20.836 C 24.570 26.270 21.289 30.555 14.149 30.555 L 3.695 30.555 L 3.695 0.000 Z M 7.586 14.477 L 7.586 27.129 L 13.945 27.129 C 18.828 27.129 20.692 24.445 20.692 20.836 C 20.692 17.207 18.828 14.477 13.985 14.477 L 7.586 14.477 Z M 30.066 0.000 L 33.754 0.000 L 33.754 14.359 C 33.754 17.450 36.176 19.688 39.477 19.688 C 40.461 19.688 41.465 19.523 41.695 19.484 L 41.695 23.192 C 41.262 23.218 40.363 23.258 39.825 23.258 C 37.101 23.258 34.719 21.715 33.879 19.399 L 33.636 19.399 L 33.636 22.929 L 30.066 22.929 L 30.066 0.000 Z M 55.209 -0.492 C 61.464 -0.492 65.690 4.246 65.690 11.320 C 65.690 18.500 61.464 23.218 55.209 23.218 C 48.975 23.218 44.769 18.500 44.769 11.320 C 44.769 4.246 48.975 -0.492 55.209 -0.492 Z M 55.209 2.809 C 50.635 2.809 48.522 6.812 48.522 11.320 C 48.522 15.894 50.635 19.911 55.209 19.911 C 59.843 19.911 61.956 15.875 61.956 11.320 C 61.956 6.812 59.843 2.809 55.209 2.809 Z M 80.085 22.929 L 75.366 22.929 L 75.366 28.383 L 71.678 28.383 L 71.678 22.929 L 68.233 22.929 L 68.233 19.773 L 71.678 19.773 L 71.678 5.663 C 71.678 1.910 74.014 -0.289 77.972 -0.289 C 78.917 -0.289 79.960 -0.144 80.721 0.125 L 79.960 3.242 C 79.343 3.117 78.542 2.992 78.077 2.992 C 76.127 2.992 75.366 3.898 75.366 5.946 L 75.366 19.773 L 80.085 19.773 L 80.085 22.929 Z M 94.442 -0.492 C 99.134 -0.492 102.560 1.864 103.629 5.335 L 100.059 6.320 C 99.200 3.977 97.165 2.789 94.461 2.789 C 90.399 2.789 87.610 5.414 87.426 10.211 L 103.997 10.211 L 103.997 11.753 C 103.997 20.219 98.871 23.218 94.009 23.218 C 87.755 23.218 83.692 18.316 83.692 11.281 C 83.692 4.226 87.794 -0.492 94.442 -0.492 Z M 87.446 13.328 C 87.669 16.839 90.071 19.937 94.009 19.937 C 97.782 19.937 99.895 17.227 100.243 13.328 L 87.446 13.328 Z M 118.620 -0.492 C 123.108 -0.492 126.757 1.949 127.991 6.031 L 124.460 7.035 C 123.784 4.554 121.691 2.809 118.620 2.809 C 114.046 2.809 111.932 6.812 111.932 11.320 C 111.932 15.894 114.046 19.911 118.620 19.911 C 121.632 19.911 123.686 18.231 124.362 15.875 L 127.906 16.879 C 126.659 20.875 123.049 23.218 118.620 23.218 C 112.385 23.218 108.179 18.500 108.179 11.320 C 108.179 4.246 112.385 -0.492 118.620 -0.492 Z M 142.305 22.929 L 137.587 22.929 L 137.587 28.383 L 133.899 28.383 L 133.899 22.929 L 130.453 22.929 L 130.453 19.773 L 133.899 19.773 L 133.899 5.663 C 133.899 1.910 136.235 -0.289 140.192 -0.289 C 141.137 -0.289 142.181 -0.144 142.942 0.125 L 142.181 3.242 C 141.564 3.117 140.763 2.992 140.297 2.992 C 138.348 2.992 137.587 3.898 137.587 5.946 L 137.587 19.773 L 142.305 19.773 L 142.305 22.929 Z M 156.662 -0.492 C 161.355 -0.492 164.780 1.864 165.850 5.335 L 162.280 6.320 C 161.420 3.977 159.386 2.789 156.682 2.789 C 152.620 2.789 149.831 5.414 149.647 10.211 L 166.217 10.211 L 166.217 11.753 C 166.217 20.219 161.092 23.218 156.229 23.218 C 149.975 23.218 145.913 18.316 145.913 11.281 C 145.913 4.226 150.015 -0.492 156.662 -0.492 Z M 149.667 13.328 C 149.890 16.839 152.292 19.937 156.229 19.937 C 160.003 19.937 162.116 17.227 162.464 13.328 L 149.667 13.328 Z M 180.099 -0.492 C 184.469 -0.492 186.005 2.277 186.766 3.550 L 187.173 3.550 L 187.173 0.000 L 190.743 0.000 L 190.743 30.555 L 187.055 30.555 L 187.055 19.254 L 186.766 19.254 C 186.005 20.468 184.594 23.218 180.118 23.218 C 174.396 23.218 170.399 18.664 170.399 11.406 C 170.399 4.102 174.376 -0.492 180.099 -0.492 Z M 180.657 2.809 C 176.365 2.809 174.153 6.622 174.153 11.445 C 174.153 16.203 176.306 19.911 180.657 19.911 C 184.876 19.911 187.094 16.511 187.094 11.445 C 187.094 6.339 184.817 2.809 180.657 2.809 Z M 218.061 22.929 L 213.343 22.929 L 213.343 28.383 L 209.655 28.383 L 209.655 22.929 L 206.209 22.929 L 206.209 19.773 L 209.655 19.773 L 209.655 5.663 C 209.655 1.910 211.991 -0.289 215.948 -0.289 C 216.893 -0.289 217.937 -0.144 218.698 0.125 L 217.937 3.242 C 217.320 3.117 216.519 2.992 216.053 2.992 C 214.104 2.992 213.343 3.898 213.343 5.946 L 213.343 19.773 L 218.061 19.773 L 218.061 22.929 Z M 222.778 0.000 L 226.466 0.000 L 226.466 22.929 L 222.778 22.929 L 222.778 0.000 Z M 224.642 26.683 C 226.059 26.683 227.227 27.766 227.227 29.124 C 227.227 30.476 226.059 31.559 224.642 31.559 C 223.251 31.559 222.082 30.476 222.082 29.124 C 222.082 27.766 223.251 26.683 224.642 26.683 Z M 232.950 0.000 L 236.638 0.000 L 236.638 14.438 C 236.638 18.086 239.079 19.976 241.770 19.976 C 244.349 19.976 246.259 18.270 246.259 15.730 L 246.259 0.000 L 249.947 0.000 L 249.947 14.969 C 249.947 17.863 251.837 19.976 254.934 19.976 C 257.395 19.976 259.567 18.664 259.567 15.363 L 259.567 0.000 L 263.262 0.000 L 263.262 15.461 C 263.262 20.777 260.020 23.336 256.043 23.336 C 252.716 23.336 249.907 21.551 248.825 18.664 C 248.004 21.492 245.990 23.336 242.977 23.336 C 240.267 23.336 237.688 21.820 236.559 18.723 L 236.540 22.929 L 232.950 22.929 L 232.950 0.000 Z M 279.381 -0.492 C 284.073 -0.492 287.499 1.864 288.569 5.335 L 284.999 6.320 C 284.139 3.977 282.105 2.789 279.401 2.789 C 275.339 2.789 272.550 5.414 272.366 10.211 L 288.936 10.211 L 288.936 11.753 C 288.936 20.219 283.811 23.218 278.948 23.218 C 272.694 23.218 268.632 18.316 268.632 11.281 C 268.632 4.226 272.733 -0.492 279.381 -0.492 Z M 272.386 13.328 C 272.609 16.839 275.011 19.937 278.948 19.937 C 282.722 19.937 284.835 17.227 285.182 13.328 L 272.386 13.328 Z M 293.610 -7.363 L 296.439 -7.363 L 299.641 4.266 L 295.415 4.266 L 293.610 -7.363 Z M 327.471 -0.492 C 331.960 -0.492 335.609 1.949 336.842 6.031 L 333.312 7.035 C 332.636 4.554 330.542 2.809 327.471 2.809 C 322.897 2.809 320.784 6.812 320.784 11.320 C 320.784 15.894 322.897 19.911 327.471 19.911 C 330.483 19.911 332.537 18.231 333.213 15.875 L 336.757 16.879 C 335.510 20.875 331.901 23.218 327.471 23.218 C 321.237 23.218 317.030 18.500 317.030 11.320 C 317.030 4.246 321.237 -0.492 327.471 -0.492 Z M 345.822 30.555 L 342.133 30.555 L 342.133 0.000 L 345.822 0.000 L 345.822 30.555 Z M 361.946 -0.492 C 366.638 -0.492 370.063 1.864 371.133 5.335 L 367.563 6.320 C 366.703 3.977 364.669 2.789 361.965 2.789 C 357.903 2.789 355.114 5.414 354.930 10.211 L 371.501 10.211 L 371.501 11.753 C 371.501 20.219 366.375 23.218 361.513 23.218 C 355.258 23.218 351.196 18.316 351.196 11.281 C 351.196 4.226 355.298 -0.492 361.946 -0.492 Z M 354.950 13.328 C 355.173 16.839 357.575 19.937 361.513 19.937 C 365.286 19.937 367.399 17.227 367.747 13.328 L 354.950 13.328 Z M 383.210 -0.532 C 387.088 -0.532 389.241 1.496 390.015 3.117 L 390.264 3.117 L 390.264 0.000 L 393.894 0.000 L 393.894 15.113 C 393.894 22.273 388.374 23.218 385.303 23.218 C 381.753 23.218 377.815 21.945 376.050 17.778 L 379.600 16.610 C 380.316 18.211 382.101 19.976 385.402 19.976 C 388.584 19.976 390.205 18.336 390.205 15.481 L 390.205 15.363 C 390.205 13.657 388.401 13.781 384.319 13.269 C 380.073 12.738 375.394 11.773 375.394 6.523 C 375.394 2.008 378.859 -0.532 383.210 -0.532 Z M 383.846 2.730 C 381.097 2.730 379.108 3.957 379.108 6.339 C 379.108 8.945 381.464 9.804 384.155 10.152 C 385.566 10.336 389.589 10.749 390.205 11.465 L 390.205 8.288 C 390.205 5.473 387.928 2.730 383.846 2.730 Z M 400.376 0.000 L 404.064 0.000 L 404.064 14.359 C 404.064 17.450 406.485 19.688 409.786 19.688 C 410.771 19.688 411.775 19.523 412.004 19.484 L 412.004 23.192 C 411.571 23.218 410.672 23.258 410.134 23.258 C 407.411 23.258 405.028 21.715 404.188 19.399 L 403.946 19.399 L 403.946 22.929 L 400.376 22.929 L 400.376 0.000 Z M 419.875 30.555 L 416.187 30.555 L 416.187 0.000 L 419.875 0.000 L 419.875 30.555 Z M 425.992 -8.308 C 426.379 -8.492 427.383 -8.735 428.695 -8.735 C 431.937 -8.735 434.149 -7.074 435.547 -3.426 L 445.613 22.929 L 441.597 22.929 L 436.675 9.332 C 435.953 7.343 435.422 5.355 434.910 3.445 C 434.378 5.355 433.867 7.324 433.145 9.332 L 428.262 22.929 L 424.226 22.929 L 432.981 -0.125 L 432.324 -2.028 C 431.196 -5.309 429.575 -5.801 427.324 -5.211 L 426.930 -5.106 L 425.992 -8.308 Z M 461.776 -8.571 L 465.464 -8.571 L 465.464 3.550 L 465.753 3.550 C 466.514 2.277 468.050 -0.492 472.420 -0.492 C 478.143 -0.492 482.120 4.102 482.120 11.406 C 482.120 18.664 478.117 23.218 472.401 23.218 C 467.925 23.218 466.514 20.468 465.753 19.254 L 465.346 19.254 L 465.346 22.929 L 461.776 22.929 L 461.776 -8.571 Z M 471.863 2.809 C 467.702 2.809 465.425 6.339 465.425 11.445 C 465.425 16.511 467.643 19.911 471.863 19.911 C 476.214 19.911 478.366 16.203 478.366 11.445 C 478.366 6.622 476.148 2.809 471.863 2.809 Z M 491.181 30.555 L 487.493 30.555 L 487.493 0.000 L 491.181 0.000 L 491.181 30.555 Z M 504.083 -0.532 C 507.961 -0.532 510.114 1.496 510.888 3.117 L 511.138 3.117 L 511.138 0.000 L 514.767 0.000 L 514.767 15.113 C 514.767 22.273 509.248 23.218 506.176 23.218 C 502.626 23.218 498.688 21.945 496.923 17.778 L 500.473 16.610 C 501.189 18.211 502.974 19.976 506.275 19.976 C 509.458 19.976 511.078 18.336 511.078 15.481 L 511.078 15.363 C 511.078 13.657 509.274 13.781 505.192 13.269 C 500.946 12.738 496.267 11.773 496.267 6.523 C 496.267 2.008 499.732 -0.532 504.083 -0.532 Z M 504.719 2.730 C 501.970 2.730 499.981 3.957 499.981 6.339 C 499.981 8.945 502.337 9.804 505.028 10.152 C 506.439 10.336 510.462 10.749 511.078 11.465 L 511.078 8.288 C 511.078 5.473 508.801 2.730 504.719 2.730 Z M 524.937 13.742 C 524.937 17.660 527.417 19.891 530.725 19.891 C 533.921 19.891 535.890 17.778 535.890 14.254 L 535.890 0.000 L 539.584 0.000 L 539.584 14.562 C 539.584 20.363 536.467 23.218 531.827 23.218 C 528.756 23.218 526.295 21.925 524.819 18.683 L 524.792 22.929 L 521.249 22.929 L 521.249 0.000 L 524.937 0.000 L 524.937 13.742 Z M 549.751 13.742 C 549.751 17.660 552.232 19.891 555.539 19.891 C 558.735 19.891 560.704 17.778 560.704 14.254 L 560.704 0.000 L 564.399 0.000 L 564.399 14.562 C 564.399 20.363 561.282 23.218 556.642 23.218 C 553.571 23.218 551.110 21.925 549.633 18.683 L 549.607 22.929 L 546.063 22.929 L 546.063 0.000 L 549.751 0.000 L 549.751 13.742 Z M 580.518 -0.492 C 585.210 -0.492 588.636 1.864 589.705 5.335 L 586.135 6.320 C 585.276 3.977 583.241 2.789 580.538 2.789 C 576.475 2.789 573.686 5.414 573.503 10.211 L 590.073 10.211 L 590.073 11.753 C 590.073 20.219 584.948 23.218 580.085 23.218 C 573.831 23.218 569.769 18.316 569.769 11.281 C 569.769 4.226 573.870 -0.492 580.518 -0.492 Z M 573.522 13.328 C 573.745 16.839 576.147 19.937 580.085 19.937 C 583.858 19.937 585.971 17.227 586.319 13.328 L 573.522 13.328 Z M 603.954 -0.492 C 608.325 -0.492 609.861 2.277 610.622 3.550 L 611.029 3.550 L 611.029 0.000 L 614.599 0.000 L 614.599 30.555 L 610.911 30.555 L 610.911 19.254 L 610.622 19.254 C 609.861 20.468 608.450 23.218 603.974 23.218 C 598.251 23.218 594.255 18.664 594.255 11.406 C 594.255 4.102 598.232 -0.492 603.954 -0.492 Z M 604.512 2.809 C 600.220 2.809 598.009 6.622 598.009 11.445 C 598.009 16.203 600.161 19.911 604.512 19.911 C 608.732 19.911 610.950 16.511 610.950 11.445 C 610.950 6.339 608.673 2.809 604.512 2.809 Z M 623.889 -0.269 C 625.425 -0.269 626.659 0.965 626.659 2.500 C 626.659 4.042 625.425 5.270 623.889 5.270 C 622.354 5.270 621.120 4.042 621.120 2.500 C 621.120 0.965 622.354 -0.269 623.889 -0.269 Z" fill="#1F2A24" opacity="0.92" /></g><rect fill="#C97B63" height="8" rx="4" ry="4" width="230" x="324" y="366" /></svg>