<svg baseProfile="full" height="512" version="1.1" viewBox="0 0 512 512" width="512" xmlns="http://www.w3.org/2000/svg" xmlns:ev="http://www.w3.org/2001/xml-events" xmlns:xlink="http://www.w3.org/1999/xlink"><defs /><rect fill="#2E4A3D" height="432" rx="92" ry="92" width="432" x="40" y="40" /><rect fill="#F4EBDD" height="93.333" rx="22" ry="22" width="93.333" x="88.0" y="88.0" /><rect fill="#F4EBDD" height="93.333" rx="22" ry="22" width="93.333" x="199.333" y="88.0" /><rect fill="#F4EBDD" height="93.333" rx="22" ry="22" width="93.333" x="310.666" y="88.0" /><rect fill="#F4EBDD" height="93.333" rx="22" ry="22" width="93.333" x="88.0" y="199.333" /><rect fill="#F4EBDD" height="93.333" rx="22" ry="22" width="93.333" x="199.333" y="199.333" /><rect fill="#F4EBDD" height="93.333" rx="22" ry="22" width="93.333" x="310.666" y="199.333" /><rect fill="#F4EBDD" height="93.333" rx="22" ry="22" width="93.333" x="88.0" y="310.666" /><rect fill="#C97B63" height="57.333" rx="18" ry="18" width="57.333" x="217.333" y="328.666" /><rect fill="#F4EBDD" height="93.333" rx="22" ry="22" width="93.333" x="310.666" y="310.666" /><rect fill="none" height="404" opacity="0.35" rx="78" ry="78" stroke="#A9B8A5" stroke-width="4" width="404" x="54" y="54" /></svg>