<svg baseProfile="full" height="500" version="1.1" viewBox="0 0 1600 500" width="1600" xmlns="http://www.w3.org/2000/svg" xmlns:ev="http://www.w3.org/2001/xml-events" xmlns:xlink="http://www.w3.org/1999/xlink"><defs /><g transform="translate(40,40) scale(0.8203125)"><rect fill="#2E4A3D" height="432" rx="92" ry="92" width="432" x="40" y="40" /><rect fill="#F4EBDD" height="93.333" rx="22" ry="22" width="93.333" x="88.0" y="88.0" /><rect fill="#F4EBDD" height="93.333" rx="22" ry="22" width="93.333" x="199.333" y="88.0" /><rect fill="#F4EBDD" height="93.333" rx="22" ry="22" width="93.333" x="310.666" y="88.0" /><rect fill="#F4EBDD" height="93.333" rx="22" ry="22" width="93.333" x="88.0" y="199.333" /><rect fill="#F4EBDD" height="93.333" rx="22" ry="22" width="93.333" x="199.333" y="199.333" /><rect fill="#F4EBDD" height="93.333" rx="22" ry="22" width="93.333" x="310.666" y="199.333" /><rect fill="#F4EBDD" height="93.333" rx="22" ry="22" width="93.333" x="88.0" y="310.666" /><rect fill="#C97B63" height="57.333" rx="18" ry="18" width="57.333" x="217.333" y="328.666" /><rect fill="#F4EBDD" height="93.333" rx="22" ry="22" width="93.333" x="310.666" y="310.666" /><rect fill="none" height="404" opacity="0.35" rx="78" ry="78" stroke="#A9B8A5" stroke-width="4" width="404" x="54" y="54" /></g><g transform="translate(500,335) scale(1,-1)"><path d="M 13.944 0.000 L 43.592 0.000 L 43.592 60.878 L 77.266 60.878 C 77.589 60.878 77.841 60.878 78.056 60.878 L 109.502 0.000 L 142.169 0.000 L 107.237 66.269 C 127.147 74.355 139.042 91.066 139.042 113.886 C 139.042 146.661 116.006 167.325 79.170 167.325 L 13.944 167.325 L 13.944 0.000 Z M 43.592 85.352 L 43.592 142.169 L 77.481 142.169 C 97.498 142.169 109.825 131.280 109.825 113.886 C 109.825 96.348 97.498 85.352 77.733 85.352 L 43.592 85.352 Z M 194.128 -2.695 C 221.872 -2.695 243.902 13.369 248.394 36.620 L 221.872 36.620 C 218.637 26.522 209.078 19.658 194.811 19.658 C 175.728 19.658 164.731 32.559 164.048 51.894 L 249.831 51.894 L 249.831 59.620 C 249.831 96.025 227.155 121.289 193.014 121.289 C 159.772 121.289 136.305 95.234 136.305 59.189 C 136.305 23.252 158.550 -2.695 194.128 -2.695 Z M 164.264 71.444 C 166.169 88.370 177.058 98.828 193.481 98.828 C 209.869 98.828 220.866 88.370 222.662 71.444 L 164.264 71.444 Z M 308.762 -2.695 C 338.770 -2.695 360.548 16.639 362.561 42.550 L 334.602 42.550 C 331.906 29.433 323.928 20.880 309.122 20.880 C 290.470 20.880 279.473 35.830 279.473 59.189 C 279.473 82.656 290.578 97.714 309.122 97.714 C 323.820 97.714 332.697 88.837 334.817 76.152 L 362.561 76.152 C 360.117 102.530 338.555 121.289 308.762 121.289 C 274.083 121.289 250.831 95.809 250.831 59.189 C 250.831 22.569 274.083 -2.695 308.762 -2.695 Z M 421.384 -2.695 C 449.128 -2.695 471.158 13.369 475.650 36.620 L 449.128 36.620 C 445.894 26.522 436.334 19.658 422.067 19.658 C 402.984 19.658 391.987 32.559 391.305 51.894 L 477.087 51.894 L 477.087 59.620 C 477.087 96.025 454.411 121.289 420.270 121.289 C 387.028 121.289 363.561 95.234 363.561 59.189 C 363.561 23.252 385.806 -2.695 421.384 -2.695 Z M 391.520 71.444 C 393.425 88.370 404.314 98.828 420.737 98.828 C 437.125 98.828 448.122 88.370 449.919 71.444 L 391.520 71.444 Z M 530.089 -2.803 C 559.378 -2.803 580.402 11.787 580.402 34.931 C 580.402 52.325 569.513 62.675 546.045 67.598 L 524.698 71.983 C 514.816 74.139 508.958 78.487 508.958 85.567 C 508.958 93.653 516.613 99.942 529.083 99.942 C 541.984 99.942 550.645 92.216 550.861 81.650 L 577.491 81.650 C 576.808 106.016 557.150 121.181 528.400 121.181 C 499.434 121.181 480.675 106.483 480.675 84.669 C 480.675 66.700 492.570 55.128 515.247 50.420 L 535.480 46.287 C 545.470 44.131 551.652 39.998 551.652 32.811 C 551.652 24.366 543.350 18.436 529.622 18.436 C 515.498 18.436 507.161 25.048 505.939 36.620 L 477.980 36.620 C 479.777 11.105 501.231 -2.803 530.089 -2.803 Z M 633.511 -2.803 C 662.800 -2.803 683.823 11.787 683.823 34.931 C 683.823 52.325 672.934 62.675 649.467 67.598 L 628.120 71.983 C 618.237 74.139 612.380 78.487 612.380 85.567 C 612.380 93.653 620.034 99.942 632.505 99.942 C 645.406 99.942 654.067 92.216 654.283 81.650 L 680.913 81.650 C 680.230 106.016 660.572 121.181 631.822 121.181 C 602.856 121.181 584.097 106.483 584.097 84.669 C 584.097 66.700 595.992 55.128 618.669 50.420 L 638.902 46.287 C 648.892 44.131 655.073 39.998 655.073 32.811 C 655.073 24.366 646.772 18.436 633.044 18.436 C 618.920 18.436 610.583 25.048 609.361 36.620 L 581.402 36.620 C 583.198 11.105 604.653 -2.803 633.511 -2.803 Z" fill="#2E4A3D" /></g></svg>